<?xml version="1.0" encoding="UTF-8"?>
<svg id="Layer_2" data-name="Layer 2" xmlns="http://www.w3.org/2000/svg" viewBox="0 0 346.59 333.67">
  <defs>
    <style>
      .cls-1 {
        fill: #101404;
      }
    </style>
  </defs>
  <g id="Layer_1-2" data-name="Layer 1">
    <g id="all-black-vertical-lockup">
      <g>
        <path class="cls-1" d="M12.41,175.96c5.2,2.63,10.59,4.92,16.17,6.85,13.47,4.65,27.94,7.18,43,7.18,2.96,0,5.89-.1,8.8-.3,5.41-.35,10.73-1.02,15.93-2.02,22.47-4.27,42.92-14.25,59.78-28.37,29.88-25.03,46.55-62.46,46.55-101.44V0h-106.33v58.28c-3.02,100.77-73.5,116-83.9,117.68Z"/>
        <path class="cls-1" d="M33.13,151.41c24.79-22.66,39.47-54.07,40.93-87.59H.02c-.01.8-.02,1.59-.02,2.37,0,31.84,11.73,61.9,33.13,85.22Z"/>
      </g>
      <g>
        <path class="cls-1" d="M0,331.99v-110.66h19.56v41.39h.81c4.9-9.87,12.81-14.81,23.72-14.81,4.83,0,9.31.94,13.45,2.81,4.14,1.87,7.76,4.58,10.86,8.11,3.1,3.53,5.53,8.02,7.29,13.48,1.76,5.46,2.65,11.56,2.65,18.29s-.86,12.77-2.59,18.21c-1.73,5.44-4.13,9.94-7.19,13.51-3.06,3.57-6.67,6.31-10.83,8.24-4.16,1.93-8.69,2.89-13.59,2.89-10.92,0-18.84-4.84-23.78-14.54h-1.13v13.08H0ZM24.29,271.09c-3.4,4.76-5.11,11.22-5.11,19.4s1.71,14.71,5.13,19.59c3.42,4.88,8.21,7.32,14.37,7.32s11.12-2.48,14.56-7.43c3.44-4.95,5.16-11.45,5.16-19.48,0-5.22-.73-9.81-2.19-13.75-1.46-3.94-3.68-7.06-6.67-9.35-2.99-2.29-6.61-3.43-10.86-3.43-6.2,0-11,2.38-14.4,7.13Z"/>
        <path class="cls-1" d="M95.75,237.21c-3.13,0-5.81-1.03-8.02-3.11-2.22-2.07-3.32-4.57-3.32-7.48s1.11-5.47,3.32-7.54c2.21-2.07,4.89-3.11,8.02-3.11s5.75,1.04,7.97,3.11c2.22,2.07,3.32,4.58,3.32,7.54s-1.11,5.41-3.32,7.48c-2.22,2.07-4.87,3.11-7.97,3.11ZM85.92,331.99v-83h19.56v83h-19.56Z"/>
        <path class="cls-1" d="M115.37,331.99v-12.43l42.8-53.66v-.7h-41.39v-16.21h65.33v13.35l-40.74,52.74v.7h42.15v16.21h-68.14Z"/>
        <path class="cls-1" d="M216.69,333.67c-5.37,0-10.11-.93-14.24-2.78-4.13-1.85-7.41-4.69-9.86-8.51-2.45-3.82-3.67-8.38-3.67-13.67,0-3.6.59-6.81,1.78-9.62s2.73-5.1,4.62-6.86c1.89-1.77,4.26-3.27,7.11-4.51,2.85-1.24,5.67-2.16,8.48-2.76,2.81-.59,5.98-1.09,9.51-1.49,8-.86,12.91-1.51,14.75-1.95,3.06-.72,4.9-1.93,5.51-3.62.18-.54.27-1.17.27-1.89v-.32c0-4.11-1.21-7.27-3.62-9.48-2.41-2.22-5.89-3.32-10.43-3.32s-8.21.99-11.1,2.97c-2.9,1.98-4.87,4.5-5.92,7.57l-18.26-2.59c2.13-7.42,6.3-13.09,12.51-17.02,6.21-3.93,13.77-5.89,22.67-5.89,3.35,0,6.56.28,9.62.84,3.06.56,6.09,1.53,9.08,2.92,2.99,1.39,5.57,3.13,7.75,5.24,2.18,2.11,3.93,4.84,5.27,8.19,1.33,3.35,2,7.13,2,11.35v55.55h-18.81v-11.4h-.65c-1.95,3.82-4.97,6.95-9.08,9.4-4.11,2.45-9.21,3.67-15.29,3.67ZM221.77,319.29c5.73,0,10.37-1.66,13.91-4.97,3.55-3.31,5.32-7.35,5.32-12.1v-9.78c-1.59,1.3-7.57,2.65-17.94,4.05-10.2,1.44-15.29,5.4-15.29,11.89,0,3.49,1.28,6.19,3.84,8.08,2.56,1.89,5.94,2.84,10.16,2.84Z"/>
        <path class="cls-1" d="M271.1,331.99v-110.66h19.56v61.01h1.35l29.83-33.34h22.86l-32.15,35.83,34.04,47.17h-23.4l-25.4-35.5-7.13,7.62v27.88h-19.56Z"/>
      </g>
    </g>
  </g>
</svg>