<?xml version="1.0" encoding="utf-8"?>
<!-- Generator: Adobe Illustrator 25.4.1, SVG Export Plug-In . SVG Version: 6.00 Build 0)  -->
<svg version="1.1" id="Camada_1" xmlns="http://www.w3.org/2000/svg" xmlns:xlink="http://www.w3.org/1999/xlink" x="0px" y="0px"
	 viewBox="0 0 773.6 285.7" style="enable-background:new 0 0 773.6 285.7;" xml:space="preserve">
<style type="text/css">
	.st0{fill:#FE5419;}
	.st1{fill:#504136;}
</style>
<path class="st0" d="M191.9,79.4c-1-6.1-4.9-9.7-10.6-11.3c-5.5-1.5-11.3-1.2-16.9-0.8c-10,0.7-13.4,3.9-15.6,13.6
	c-0.2,1,0.1,2.4-1.6,3.2c-4.1-4.2-8.3-8.4-13.7-11.2c-14.4-7.5-29.6-9.4-45.5-8c-22.8,2-42.8,10.4-58.9,26.4
	c-24.3,24-32.6,53.8-27.4,87c9.3,60,66.3,90.9,121.1,77.1c9.4-2.4,17.2-7.7,24-15.6c2.6,11.7,7,15.3,18,15.4c3,0,6,0,9,0
	c13.9-0.1,19-5.2,19-19.1c0-49.6,0-99.3,0-148.9C192.5,84.6,192.3,82,191.9,79.4z M142.6,191.2C133,210,114.3,218,94.3,216.7
	c-27.5-1.8-46-18.5-50.1-45.7c-4.6-30.4,12.6-58.1,42.2-63.1c3.4-0.6,7-0.6,10.4-0.9c28.8,0,49.1,19,51.6,47.7
	C149.6,167.5,148.4,179.8,142.6,191.2z"/>
<path class="st1" d="M557.4,184.5c0-5.6-2-7.4-7.7-7.5c-1.8,0-3.7,0-5.5,0c-3.3-0.1-5.5,1.3-6.2,4.6c-0.9,4.5-2.7,3.4-5.2,1.2
	c-4.4-4.1-10.2-6.5-16.2-6.8c-17.6-0.7-33.4,10.9-38,27.9c-5.1,18.3,2.5,37.7,18,46.1c12,6.5,26.7,7.9,37.2-3.6
	c-1.3,12.1-5.6,17.2-15.2,18.3c-6.1,0.7-12.1,0.1-17.2-3.6c-3.7-2.6-6.4-1.9-8.9,1.6c-1,1.4-2,2.7-3,4c-4.6,6.2-4.2,8.5,2.4,12.7
	c14.4,9.2,38.2,8.1,51.8-2.6c7.4-5.6,12.1-14.2,12.8-23.5C558.5,230.5,557.2,207.5,557.4,184.5z M517.1,235.2
	c-11.1,0-18.4-7.9-18.3-19.7c0-11.4,8.1-20.1,18.5-20c11.1,0.1,18.1,8.2,18.1,20.6C535.3,227.9,528.3,235.3,517.1,235.2L517.1,235.2
	z"/>
<path class="st1" d="M333.5,111.2c0.2,2.1,1.8,3.7,3.8,4.1c7.5,2,13.4-0.3,17.4-6.7c7.1,5.8,9,6.9,14.2,7.9
	c17.8,3.5,34.9-7,41.3-25.2c5.6-16,0.7-34.9-11.8-45c-12.8-10.4-26.3-10.9-42.7-0.9V13.7c0-13.7,0-13.7-13.5-13.7
	c-8.2,0-8.9,0.7-8.9,8.8c0,32.6,0,65.3,0,97.9C333.3,108.2,333.4,109.7,333.5,111.2z M373,57.6c9.4,0.1,17.2,9.1,17.3,19.7
	c0.1,11.4-7.4,19.8-17.9,19.9c-10.2,0.1-18.6-8.5-18.7-19.3S362.9,57.5,373,57.6L373,57.6z"/>
<path class="st1" d="M624.7,176.8c-9.7-2.4-18.9-0.3-27.2,5c-3.3,2.1-3.9,1.1-3.9-2.2c0.1-9.3,0-18.7,0-28c0-13.5,0-13.5-13.4-13.5
	c-7.6,0-8.7,1-8.7,8.6c0,16.5,0,33,0,49.5c0,14.3,0,28.6,0,43c0,15.6-0.7,14.4,14.4,14.3c6.5,0,7.7-1.2,7.8-8c0.1-11,0-22,0-33
	c0-9.4,7.7-16.1,18.3-16.2c9.2,0,14.5,5.6,14.5,15.8c0,11.7,0.1,23.3,0,35c0,4.6,1.8,6.8,6.5,6.5c3.2-0.2,6.3-0.1,9.5,0
	c3.9,0.1,6-1.9,6-5.7c0-15,1.2-30-1-44.9C645.4,189.6,638.3,180.1,624.7,176.8z"/>
<path class="st1" d="M480,110.9c0.9,3.6,3.3,4.7,6.7,4.6c2.5-0.1,5,0,7.5-0.1c3.6-0.1,5.5-2,5.5-5.6c0-3.5,0-7,0-10.5
	c0-17.7,0-35.3,0-53c0-2.9,0-5.8-3.4-7c-8.2-3-13.3-0.8-16.7,7.8c-14.4-10.9-27.7-12-41.1-3.8c-16.2,9.9-22.8,32-15.2,50.1
	c4.5,10.8,12.2,18.4,23.3,21.7c11,3.3,21.7,3.7,30.5-5.7C479.4,107.2,479.7,109.8,480,110.9z M460.3,97.2
	c-10.9,0-18.3-7.7-18.5-19.2c-0.2-11.7,7.8-20.5,18.5-20.5s18.1,8,18.2,20S471.7,97.2,460.3,97.2z"/>
<path class="st1" d="M297.8,107.7c1.6,3.8,1.9,7.7,6.3,7.8c3.2,0,6.3,0.1,9.5,0c3.4-0.1,5.1-2,5.1-5.5c0-21.8,0-43.6,0-65.5
	c0-2.6-1-4.5-3.7-5.3c-8.7-2.6-12.5-0.9-16.1,7.4c0,0.1-0.3,0.1-0.7,0.4c-4.3-3.7-8.5-7.8-14.5-8.8c-17.2-2.9-34.5,6.4-40.8,21.9
	c-7.4,18.2-2.2,39.6,12.1,49.6c6.5,4.7,14.4,7.3,22.4,7.4C285.4,117.2,292.4,114.7,297.8,107.7z M279.1,97.2
	c-10.9-0.1-18.3-8.1-18.3-19.9c0-11.3,8-19.8,18.7-19.8s18,8.2,18,20.2S290.5,97.2,279.1,97.2L279.1,97.2z"/>
<path class="st1" d="M356.8,225.9L356.8,225.9c0-7.3,0.2-14.7,0-22c-0.5-13.5-9.4-24-22.5-27c-10.6-2.4-20.2-0.3-28.5,6.6
	c-2.2,1.8-3.3,1.9-4-1.2c-0.7-3.2-2.7-5.3-6.3-5.4c-2.8,0-5.7-0.1-8.5,0c-3.6,0.1-5.5,2.1-5.5,5.7v66c0,3.4,1.8,4.8,5,4.8
	c3.7,0,7.3,0,11,0c6.1-0.1,7-0.9,7.1-6.9c0.1-11,0-22,0-33c0-9.5,6.8-16.2,16.3-16.2c8.7,0,13.3,5.4,13.4,15.6
	c0.1,11.5,0.1,23,0,34.5c0,4.2,1.5,6.2,5.9,6c3.5-0.2,7-0.1,10.5,0c4.4,0.2,6.4-1.6,6.3-6.1C356.6,240.2,356.8,233.1,356.8,225.9z"
	/>
<path class="st1" d="M661.8,107c0-10,0-20,0-30c0-7.7,0-15.3,0-23c0-15.9,1.7-15.1-15.2-15c-6.2,0-7.3,1.2-7.4,7.3
	c-0.1,11.3,0,22.7,0,34c0,2.5-0.2,4.9-1.7,7.1c-4.2,5.9-13.8,9.2-20.5,7c-5.7-1.9-8.2-6.5-8.3-15.5c0-11.2-0.1-22.3,0-33.5
	c0.1-4.6-1.9-6.8-6.6-6.5c-3,0.2-6,0-9,0c-5.5,0.1-6.9,1.4-6.9,6.8c-0.1,14.3-0.1,28.7,0,43c0.1,5.9,2,11.6,5.5,16.4
	c9.1,12.6,28.8,15.2,43.7,5.6c3.1-2,5.5-3.8,7,1.5c0.7,2.2,2.9,3.1,5.2,3.2c1.8,0.1,3.7,0.1,5.5,0.1
	C661,115.5,661.8,114.6,661.8,107z"/>
<path class="st1" d="M736.7,94.4c0.7-9.9-4.3-16.4-12.5-20.9c-2.5-1.3-5.1-2.5-7.7-3.5c-4.8-1.9-9.7-3.6-14.4-5.6
	c-2.1-0.9-3.6-2.5-3.3-5c0.4-2.7,2.7-3.2,4.8-3.6c5.1-0.9,9.6,0.8,13.4,4.1c3.1,2.8,5.8,2.5,8.8,0c1.4-1.2,2.9-2.2,4.3-3.4
	c4.7-4.3,4.7-6.2-0.1-10.4c-10.7-9.4-29.4-11.4-41.8-4.5c-11.3,6.2-15.4,17.2-10.3,27.7c3.2,6.7,9.2,9.8,15.7,12.4
	c5.1,2,10.7,2.7,15.5,5.5c2.5,1.5,5,3,4.1,6.6c-0.9,3.4-3.5,4.8-6.7,5.1c-4.8,0.5-8.6-1.6-12.3-4.5c-7.2-5.7-7.3-5.6-14.5,0.2
	c-0.3,0.2-0.5,0.4-0.8,0.6c-6.1,4.9-6.1,7.6-0.1,12.9c7.5,6.5,16.4,9.2,26.2,9.5c5.8,0.1,11.7-1.1,17-3.4
	C730.3,110.2,736,104.1,736.7,94.4z"/>
<path class="st1" d="M416.7,211.2c-5.4-2.7-10.9-5-16.7-6.7c-2.1-0.7-4.1-1.5-6-2.5c-1.8-0.8-2.7-2.7-2.3-4.6c0.3-2,1.7-2.6,3.4-3.1
	c4.7-1.6,9.9-0.6,13.6,2.8c4.4,3.9,7.9,3.2,11.6-0.5c1.1-1,2.2-2,3.5-2.9c3.6-2.8,3.4-5.6,0.2-8.7c-11.6-11.1-33.2-12.7-46.4-3.3
	c-12,8.7-12,24.6,0.1,33.4c4.8,3.5,10.4,5.2,16,6.8c3.1,0.8,6,2,8.8,3.5c2.2,1.4,4.2,3,3.6,6c-0.5,2.9-2.9,5.1-5.9,5.4
	c-4.2,0.6-8.4-0.6-11.7-3.3c-10-7.9-7.6-7.6-17.2,0c-5.5,4.3-5.7,6.5-0.7,11.5c7.5,7.5,17,10.1,27.3,10.5c5.9,0.1,11.7-1.1,17-3.5
	c8.5-3.8,14.1-10,14.8-19.7C430.4,222.2,425.1,215.7,416.7,211.2z"/>
<path class="st1" d="M771.7,222.4c-3.3-7.6-10.2-11.2-17.3-14.1c-5.1-2.1-10.3-3.7-15.5-5.7c-2.1-0.8-4-2.2-3.7-4.7
	c0.3-2.8,2.6-3.7,5-4.1c4.8-0.9,9.8,0.6,13.4,4c3.2,3,6.1,2.7,9.2-0.1c1.2-1.1,2.6-2,3.9-3.1c5-4.4,5-7-0.5-11
	c-12.1-8.9-25.3-10.7-39.2-5c-8.3,3.4-14.2,9.6-14.6,19.2c-0.3,9.3,4.8,15.6,12.9,19.6c3.6,1.8,7.3,3.2,11.2,4.3
	c3.4,0.7,6.7,2,9.8,3.7c2.2,1.3,4.3,2.9,3.7,5.9s-2.6,4.6-5.4,5.2c-4.5,1-8.5-0.2-12.2-3c-9.1-6.9-9.2-6.9-18,0.3
	c-4.6,3.8-4.9,5.8-0.8,10.2c7.5,8,17.1,11.2,27.4,11.4c6.2,0.1,12.3-1.1,17.9-3.5C771.3,246.6,776.8,234,771.7,222.4z"/>
<path class="st1" d="M571.7,96.9c-0.3-0.4-0.6-0.8-0.8-1.2c-1.8-3.1-4.1-4-7.5-2.4c-2.7,1.3-5.5,2.3-8.4,3.1
	c-10.4,2.8-20.7-2.2-24-11.8c-2.8-8.2-0.9-15.5,5.3-21.5c6.6-6.4,14.4-6.8,22.8-3.9c3.1,1.1,5.6,5.4,9.3,3.2c3-1.8,3.8-5.7,5.9-8.6
	c0.2-0.3,0.3-0.6,0.5-0.9c2.3-3.5,1.4-6.2-2-8.4c-13.4-8.5-27.5-10.1-41.7-2.6c-13.9,7.3-21.4,19.1-21.8,30.3
	c-0.3,34.3,30.1,53.5,57.7,41.1C578.3,108.2,578.6,106.9,571.7,96.9z"/>
<path class="st1" d="M695.5,177.1c-3.7,0.2-5-1.4-4.9-5c0.2-5.3,0.2-10.7-0.1-16c-0.2-5-2.1-6.5-7.1-5.9c-3.5,0.4-6.9,1-10.4,1.6
	c-3.3,0.6-4.9,2.6-4.9,5.9c0,4.8-0.1,9.7,0,14.5c0,2.8-0.4,4.9-4,4.9c-3.2,0-4.8,2-4.9,5.1c-0.1,2.7-0.1,5.3,0,8
	c0.1,3,1.5,5.2,4.8,5.3c3.4,0,4.1,1.8,4.1,4.8c-0.1,7.8,0,15.7,0,23.5c0,5.3,0,10.7,0,16c0,15.3-1.4,13.8,14.1,13.9
	c7.2,0,8.3-1.2,8.3-8.5c0-14.3,0.2-28.6-0.1-43c-0.1-4.9,1.1-7.3,6.4-6.6c2.1,0.3,4.8,0.3,5.9-1.9c2.1-4.4,1.6-9.2,0.4-13.6
	C702.3,176.4,698.4,176.9,695.5,177.1z"/>
<path class="st1" d="M456,177c-2.2,0-4.3,0.1-6.5,0c-4.5-0.3-6.3,1.7-6.3,6.2c0.1,10.6,0,21.3,0,32c0,8,0,16,0,24
	c0.1,16-1.8,14.4,14.4,14.4c6.9,0,7.8-0.9,7.8-7.8c0-19.8,0-39.6,0-59.4C465.5,177.8,464.7,177,456,177z"/>
<path class="st1" d="M251.5,177c-5.9,0-7,1.1-7.1,7c-0.1,10.3,0,20.6,0,30.9c0,8,0,16,0,23.9c0,16.7-1.2,14.5,14.8,14.6
	c6.5,0,7.5-1,7.5-7.6c0-18,0-35.9,0-53.9C266.7,175.8,267.7,176.9,251.5,177z"/>
<path class="st1" d="M255,142.5c-6.8,0.1-12.4,5.5-12.5,12.4c-0.1,6.6,5.7,12.3,12.6,12.3c6.8,0,12.3-5.5,12.3-12.3
	C267.3,148,261.8,142.5,255,142.5C255,142.5,255,142.5,255,142.5L255,142.5z"/>
<path class="st1" d="M453.8,142.5c-6.8-0.1-12.4,5.4-12.4,12.2s5.4,12.4,12.2,12.4c0.2,0,0.4,0,0.6,0c6.5-0.1,12.3-5.9,12.1-12.2
	C466.2,148.3,460.3,142.5,453.8,142.5z"/>
<polygon class="st1" points="748.2,38.2 751.3,38.2 751.3,27.2 754.9,27.2 754.9,24.7 744.6,24.7 744.6,27.2 748.2,27.2 "/>
<path class="st1" d="M759.2,33c0.1-1.7,0.2-3.8,0.2-5.6l0,0c0.3,1.8,0.8,3.7,1.2,5.3l1.4,5.2h2.4l1.6-5.3c0.5-1.6,1.1-3.5,1.5-5.2
	h0.1c0,2,0.1,3.9,0.1,5.5l0.2,5.2h3l-0.7-13.5h-4l-1.4,4.5c-0.4,1.5-0.9,3.3-1.3,4.8h-0.1c-0.3-1.6-0.7-3.3-1.1-4.8l-1.3-4.5H757
	l-0.9,13.5h2.8L759.2,33z"/>
<path class="st0" d="M164.4,20.2h-24.6C137.4,8.6,127.1,0,114.8,0s-22.5,8.7-25,20.2H50.7C48.3,8.6,38,0,25.8,0
	C11.6,0,0.2,11.4,0.2,25.6s11.4,25.6,25.6,25.6c11.8,0,21.7-8,24.7-18.8h39.8c3,10.8,12.9,18.8,24.7,18.8s21.7-8,24.7-18.8h25V20.2z
	"/>
<circle class="st1" cx="170.5" cy="25.6" r="25.6"/>
</svg>
