<?xml version="1.0" encoding="UTF-8"?><svg id="Layer_1" xmlns="http://www.w3.org/2000/svg" width="202mm" height="44mm" viewBox="0 0 572.6 124.72"><path d="M370.89,62.14V1.95h-13.52v34.65c-5.72-3.66-13.07-5.74-21.67-5.74-21.52,0-35.1,12.98-35.1,31.42s12.45,31.61,35.1,31.61,35.2-13.12,35.2-31.61c0-.05,0-.1,0-.15ZM357.25,67.75c0,7.16-5.95,13.02-13.23,13.02h-16.65c-7.27,0-13.23-5.86-13.23-13.02v-10.88c0-7.16,5.95-13.02,13.23-13.02h16.65c7.27,0,13.23,5.86,13.23,13.02v10.88Z" fill="#1f1f1f"/><path d="M236.39,62.44s0-.1,0-.14c0-18.49-13.68-31.42-35.2-31.42s-35.1,12.98-35.1,31.42,12.45,31.61,35.1,31.61c8.83,0,16.12-2,21.73-5.53v4.66h13.47v-30.6h0ZM222.75,67.76c0,7.16-5.95,13.02-13.23,13.02h-16.65c-7.27,0-13.23-5.86-13.23-13.02v-10.88c0-7.16,5.95-13.02,13.23-13.02h16.65c7.27,0,13.23,5.86,13.23,13.02v10.88Z" fill="#1f1f1f"/><path d="M139.23,31.64v36.11c0,7.16-5.95,13.02-13.23,13.02h-14.04c-7.27,0-13.23-5.86-13.23-13.02V31.64h-13.55v30.82c.08,18.35,11.03,31.43,33.61,31.43s34-13.04,34.08-31.43v-30.82h-13.64Z" fill="#1f1f1f"/><path d="M73.1,62.3s0-.1,0-.14c0-18.49-13.68-31.42-35.2-31.42S2.8,43.71,2.8,62.16s12.45,31.61,35.1,31.61c8.83,0,16.12-2,21.73-5.53v5.52s2.45,16.15-13.89,16.15h-26.54v12.63l26.54-1.22c15.86-.63,27.38-10.1,27.35-27.55v-31.46h0ZM59.46,67.62c0,7.16-5.95,13.02-13.23,13.02h-16.65c-7.27,0-13.23-5.86-13.23-13.02v-10.88c0-7.16,5.95-13.02,13.23-13.02h16.65c7.27,0,13.23,5.86,13.23,13.02v10.88Z" fill="#1f1f1f"/><path d="M285.61,31.58c-18.65,0-31.5,12.41-31.5,30.85,0,.02,0,.05,0,.07v30.53h13.55v-36.03c0-7.16,5-13.02,13.23-13.02h15.68v-12.44l-10.96.03Z" fill="#1f1f1f"/><path d="M511.47,92.91h-16.57s28.29-31.34,28.74-31.82c-.45-.36-27.4-29.54-27.4-29.54h17.31l17.42,19.46c.45.6,1.19.84,2.08.84s1.49-.24,1.94-.84l16.83-19.46h16.57s-26.51,29.18-26.95,29.54c1.04.84,28.29,31.82,28.29,31.82h-16.42l-18.91-22.22c-.45-.6-1.04-.84-1.79-.84s-1.34.24-1.79.84l-19.36,22.22Z" fill="#829e9e"/><rect x="469.64" y="31.58" width="13.8" height="61.41" transform="translate(953.08 124.56) rotate(-180)" fill="#829e9e"/><path d="M450.52,31.54s0,7.42,0,12.4l-44.45.02c-3.33,0-10.53-.25-10.53,5.62s6.53,5.51,10.25,5.51l24.08.03c12.29,0,23.58,4.84,23.58,18.98,0,13.72-11.09,18.95-23.46,18.95l-41.51-.04v-12.01s45.06-.03,45.06-.03c2.94,0,9.87-.19,9.87-6.25,0-5.86-5.97-6.09-9.83-6.09l-24.17-.07c-6.55,0-23.43-2.09-23.43-18.5,0-15.23,13.77-18.56,23.4-18.56l41.13.06Z" fill="#829e9e"/></svg>