<?xml version="1.0" encoding="UTF-8"?>
<svg xmlns="http://www.w3.org/2000/svg" xmlns:xlink="http://www.w3.org/1999/xlink" width="231.407" height="51.695" viewBox="0 0 231.407 51.695">
  <defs>
    <clipPath id="clip-path">
      <rect id="Rectangle_36" data-name="Rectangle 36" width="231.407" height="51.695" fill="none"></rect>
    </clipPath>
  </defs>
  <g id="Group_24" data-name="Group 24" transform="translate(0 0)">
    <path id="Path_39" data-name="Path 39" d="M57,.152h4.881v27.33H76.517v4.881H57Z" transform="translate(-16.704 -0.044)" fill="#061a2d"></path>
    <path id="Path_40" data-name="Path 40" d="M112.813,27.482H94.307l-2.264,4.88H86.654L101.685.152h3.748l15.11,32.21h-5.466ZM110.548,22.6,103.6,7.726,96.649,22.6Z" transform="translate(-25.396 -0.045)" fill="#061a2d"></path>
    <path id="Path_41" data-name="Path 41" d="M151.875,23.578,141.958,9.835V32.362h-4.881V.152h3.9L153.71,17.721,166.4.152h3.9v32.21h-4.881V9.835l-9.917,13.743Z" transform="translate(-40.173 -0.045)" fill="#061a2d"></path>
    <rect id="Rectangle_34" data-name="Rectangle 34" width="4.881" height="32.211" transform="translate(134.776 0.107)" fill="#061a2d"></rect>
    <path id="Path_42" data-name="Path 42" d="M224.678,22.094V.152h4.881v32.21h-3.2l-17.3-22.528V32.362H204.18V.152h3.631Z" transform="translate(-59.839 -0.045)"></path>
    <path id="Path_43" data-name="Path 43" d="M268.557,27.482H250.051l-2.264,4.88H242.4L257.429.152h3.748l15.11,32.21h-5.466ZM266.292,22.6l-6.95-14.875L252.393,22.6Z" transform="translate(-71.04 -0.045)" fill="#061a2d"></path>
    <g id="Group_23" data-name="Group 23" transform="translate(0 0)">
      <g id="Group_22" data-name="Group 22" clip-path="url(#clip-path)">
        <path id="Path_44" data-name="Path 44" d="M307.073,24.4a12.867,12.867,0,0,1-2.03.156H297.7v7.809h-4.881V.152h12.221a11.733,11.733,0,0,1,8.609,3.572,11.733,11.733,0,0,1,3.572,8.609,11.752,11.752,0,0,1-3.552,8.629,12.449,12.449,0,0,1-2.07,1.678l4.881,9.722h-5.427Zm-9.37-4.724h7.34a7.026,7.026,0,0,0,5.154-2.148,7.072,7.072,0,0,0,2.148-5.192A7.029,7.029,0,0,0,310.2,7.18a7.029,7.029,0,0,0-5.154-2.148H297.7Z" transform="translate(-85.817 -0.045)" fill="#061a2d"></path>
        <path id="Path_45" data-name="Path 45" d="M58.408,57.2l2.1,5.746L62.607,57.2h1.3l-2.946,8.076h-.911L57.105,57.2Z" transform="translate(-16.736 -16.764)" fill="#5e5f5f"></path>
        <path id="Path_46" data-name="Path 46" d="M73.492,58.079H72.269V56.855h1.223Zm0,7.1H72.269V58.812h1.223Z" transform="translate(-21.18 -16.663)" fill="#5e5f5f"></path>
        <path id="Path_47" data-name="Path 47" d="M80.923,57.2h1.223v1.713h.979v1.224h-.979v5.139H80.923Z" transform="translate(-23.716 -16.764)" fill="#5e5f5f"></path>
        <path id="Path_48" data-name="Path 48" d="M91.147,61.5v4.386H89.924V59.514h1.223v.255a3.08,3.08,0,0,1,1.713-.489V60.5a1.876,1.876,0,0,0-1.38.568,2.015,2.015,0,0,0-.333.431" transform="translate(-26.354 -17.373)" fill="#5e5f5f"></path>
        <path id="Path_49" data-name="Path 49" d="M101.186,58.079H99.963V56.855h1.223Zm0,7.1H99.963V58.812h1.223Z" transform="translate(-29.296 -16.663)" fill="#5e5f5f"></path>
        <path id="Path_50" data-name="Path 50" d="M108.979,57.9h.979v1.224h-.979v5.012a3.308,3.308,0,0,1-3.3,3.308V66.221a2.072,2.072,0,0,0,2.076-2.085V57.048a3.308,3.308,0,0,1,3.3-3.308v1.224a2.072,2.072,0,0,0-2.075,2.085Z" transform="translate(-30.972 -15.75)" fill="#5e5f5f"></path>
        <path id="Path_51" data-name="Path 51" d="M119.187,58.079h-1.223V56.855h1.223Zm0,7.1h-1.223V58.812h1.223Z" transform="translate(-34.572 -16.663)" fill="#5e5f5f"></path>
        <path id="Path_52" data-name="Path 52" d="M132.172,60.746l-.891.891-3,3a2.118,2.118,0,0,0,1.067.274,2.214,2.214,0,0,0,1.733-.842l.96.754a3.346,3.346,0,0,1-2.693,1.311,3.426,3.426,0,1,1,2.428-5.853,4.416,4.416,0,0,1,.392.469m-1.752.03a2.2,2.2,0,0,0-3,3Z" transform="translate(-36.905 -17.373)" fill="#5e5f5f"></path>
        <path id="Path_53" data-name="Path 53" d="M145.863,64.916a3.427,3.427,0,1,1,0-5.638V57.2h1.224v8.076h-1.224Zm0-1.8V61.079a2.276,2.276,0,0,0-.4-.539,2.2,2.2,0,1,0,0,3.113,2.258,2.258,0,0,0,.4-.538" transform="translate(-41.17 -16.764)" fill="#5e5f5f"></path>
        <path id="Path_54" data-name="Path 54" d="M167.247,58.425h-2.2V57.2h5.629v1.224h-2.2v6.852h-1.224Z" transform="translate(-48.37 -16.764)" fill="#5e5f5f"></path>
        <path id="Path_55" data-name="Path 55" d="M179.769,58.079h-1.223V56.855h1.223Zm0,7.1h-1.223V58.812h1.223Z" transform="translate(-52.326 -16.663)" fill="#5e5f5f"></path>
        <rect id="Rectangle_35" data-name="Rectangle 35" width="1.223" height="8.076" transform="translate(132.337 40.437)" fill="#5e5f5f"></rect>
        <path id="Path_56" data-name="Path 56" d="M201.408,60.746l-.891.891-3,3a2.118,2.118,0,0,0,1.067.274,2.214,2.214,0,0,0,1.733-.842l.96.754a3.346,3.346,0,0,1-2.693,1.311,3.426,3.426,0,1,1,2.428-5.853,4.414,4.414,0,0,1,.392.469m-1.752.03a2.2,2.2,0,0,0-3,3Z" transform="translate(-57.196 -17.373)" fill="#5e5f5f"></path>
        <path id="Path_57" data-name="Path 57" d="M210.607,64.565a3.972,3.972,0,0,0,1.517.343,2.278,2.278,0,0,0,1.053-.2.574.574,0,0,0,.367-.5.637.637,0,0,0-.181-.455,1,1,0,0,0-.485-.269l-1.321-.352a2.334,2.334,0,0,1-1.214-.706,1.78,1.78,0,0,1-.431-1.2,1.756,1.756,0,0,1,.637-1.365,2.477,2.477,0,0,1,1.654-.583,4.121,4.121,0,0,1,2.408.763l-.812.93a3.108,3.108,0,0,0-1.576-.469,1.367,1.367,0,0,0-.783.22.619.619,0,0,0-.294.514.546.546,0,0,0,.2.435,1.521,1.521,0,0,0,.563.279l1.37.372A2.13,2.13,0,0,1,214.4,63a1.839,1.839,0,0,1,.416,1.228,1.684,1.684,0,0,1-.661,1.356,3.138,3.138,0,0,1-2.021.544,4.942,4.942,0,0,1-2.281-.6Z" transform="translate(-61.502 -17.373)" fill="#5e5f5f"></path>
        <path id="Path_58" data-name="Path 58" d="M3.325,19.262a3.756,3.756,0,0,1,.632-.117c1.92,0,3.839,0,5.759.033.505.009.676-.167.663-.657-.025-.968-.006-1.937-.016-2.905-.007-.609-.1-.7-.691-.7q-2.878-.006-5.755-.008a.675.675,0,0,1-.769-.717c-.011-1.121.03-2.242.018-3.364-.006-.5.283-.576.662-.575,1.21,0,2.419.014,3.628.021.744,0,1.488-.011,2.232.013.441.013.63-.156.626-.6C10.3,7.87,10.3,6.055,10.291,4.24c0-1.123,0-1.123,1.106-1.122q1.375,0,2.75.006c.686,0,.8.111.8.829,0,1.85-.008,3.7-.011,5.551,0,.756.025.78.792.785q1.4.008,2.8.011c.677,0,.725-.05.722-.748q-.01-2.752-.021-5.5c0-.872.044-.922.891-.919,1.037,0,2.075.016,3.112.014.39,0,.606.1.605.562,0,1.972.025,3.943.042,5.914.006.612.081.69.684.688,1.85-.006,3.7-.02,5.549-.023.839,0,.923.089.926.913q.005,1.479.008,2.957c0,.7-.107.795-.82.792q-2.8-.01-5.6-.01c-.73,0-.732.011-.735.715q0,1.426,0,2.854c0,.59.148.732.737.732q2.775,0,5.549,0c.8,0,.892.091.893.889q0,1.5,0,3.009c0,.594-.135.745-.722.745-1.9,0-3.8-.007-5.708-.012-.716,0-.741.024-.739.768q.005,2.8.008,5.605c0,.684-.071.753-.73.757-1,.007-2.006.025-3.009.015-.735-.007-.849-.141-.856-.9-.018-1.884-.044-3.768-.042-5.651,0-.452-.158-.615-.607-.6-1.07.025-2.14.018-3.209.021-.35,0-.465.161-.461.513.023,1.778.023,3.556.03,5.334a1.873,1.873,0,0,1-.025.718c-.093.214-.332.51-.515.515-1.156.035-2.314,0-3.472-.016-.468-.008-.647-.24-.64-.728.025-1.85.009-3.7.01-5.552,0-.693-.107-.833-.858-.842C7.767,23.793,6,23.8,4.239,23.8c-.993,0-1.04-.052-1.035-1.064.006-.952,0-1.9.008-2.854a3.977,3.977,0,0,1,.113-.624m15.863-.107a2.392,2.392,0,0,0,.071-.405c0-1.106,0-2.211,0-3.317,0-.378-.176-.517-.544-.514-1.036.01-2.073.006-3.108,0-.452,0-.677.193-.666.653q.038,1.552.068,3.106c.006.356.162.544.534.543,1.087,0,2.175,0,3.262,0a2.438,2.438,0,0,0,.381-.064" transform="translate(-0.922 -0.914)" fill="#d3a874"></path>
        <path id="Path_59" data-name="Path 59" d="M43.369,4.633H39.636a.45.45,0,0,1-.45-.45V.45a.45.45,0,0,1,.45-.45h3.733a.45.45,0,0,1,.45.45V4.183a.45.45,0,0,1-.45.45" transform="translate(-11.484 0)" fill="#d3a874"></path>
        <path id="Path_60" data-name="Path 60" d="M4.183,4.633H.45A.45.45,0,0,1,0,4.183V.45A.45.45,0,0,1,.45,0H4.183a.45.45,0,0,1,.45.45V4.183a.45.45,0,0,1-.45.45" transform="translate(0 0)" fill="#d3a874"></path>
        <path id="Path_61" data-name="Path 61" d="M43.369,43.8H39.636a.45.45,0,0,1-.45-.45V39.612a.45.45,0,0,1,.45-.45h3.733a.45.45,0,0,1,.45.45v3.733a.45.45,0,0,1-.45.45" transform="translate(-11.484 -11.477)" fill="#d3a874"></path>
        <path id="Path_62" data-name="Path 62" d="M4.183,43.8H.45a.45.45,0,0,1-.45-.45V39.612a.45.45,0,0,1,.45-.45H4.183a.45.45,0,0,1,.45.45v3.733a.45.45,0,0,1-.45.45" transform="translate(0 -11.477)" fill="#d3a874"></path>
      </g>
    </g>
  </g>
</svg>
